<svg width="1709" height="559" viewBox="0 0 1709 559" fill="none" xmlns="http://www.w3.org/2000/svg">
<g filter="url(#filter0_b_803:2599)">
<path d="M1711.41 554.341C1708.58 557.316 1704.65 559 1700.55 559L15.9774 559C7.69324 559 0.977416 552.284 0.977416 544L0.977372 47.8426C0.977372 44.3871 2.17049 41.0375 4.35493 38.36L31.1505 5.51761C33.9992 2.02603 38.2667 0.000149527 42.7729 0.000149133L1733.65 6.23465e-05C1741.94 6.16223e-05 1748.65 6.71576 1748.65 15.0001L1748.65 509.215C1748.65 513.065 1747.17 516.767 1744.52 519.556L1711.41 554.341Z" fill="url(#paint0_linear_803:2599)" fill-opacity="0.5"/>
<path d="M1710.69 553.652C1708.04 556.428 1704.38 558 1700.55 558L15.9774 558C8.24548 558 1.97742 551.732 1.97742 544L1.97737 47.8426C1.97737 44.6175 3.0909 41.4912 5.12972 38.9922L31.9252 6.14975C34.5842 2.89096 38.5671 1.00015 42.7729 1.00015L1733.65 1.00006C1741.38 1.00006 1747.65 7.26807 1747.65 15.0001L1747.65 509.215C1747.65 512.808 1746.27 516.264 1743.79 518.867L1710.69 553.652Z" stroke="url(#paint1_linear_803:2599)" stroke-width="2"/>
</g>
<defs>
<filter id="filter0_b_803:2599" x="-19.0225" y="-20" width="1787.67" height="599" filterUnits="userSpaceOnUse" color-interpolation-filters="sRGB">
<feFlood flood-opacity="0" result="BackgroundImageFix"/>
<feGaussianBlur in="BackgroundImage" stdDeviation="10"/>
<feComposite in2="SourceAlpha" operator="in" result="effect1_backgroundBlur_803:2599"/>
<feBlend mode="normal" in="SourceGraphic" in2="effect1_backgroundBlur_803:2599" result="shape"/>
</filter>
<linearGradient id="paint0_linear_803:2599" x1="357.095" y1="485" x2="11.9694" y2="0.953689" gradientUnits="userSpaceOnUse">
<stop stop-color="#C4C4C4"/>
<stop offset="1" stop-color="white" stop-opacity="0"/>
</linearGradient>
<linearGradient id="paint1_linear_803:2599" x1="27.7969" y1="-0.0010652" x2="446.039" y2="83.7674" gradientUnits="userSpaceOnUse">
<stop stop-color="white"/>
<stop offset="1" stop-color="#C4C4C4" stop-opacity="0.1"/>
</linearGradient>
</defs>
</svg>
